<svg xmlns="http://www.w3.org/2000/svg" viewBox="0 0 260 85"><defs><style>.cls-1{fill:#232c33;}.cls-2{fill:#e33946;}</style></defs><g id="Layer_2" data-name="Layer 2"><g id="svg3800"><g id="Group_1349" data-name="Group 1349"><g id="Group_14" data-name="Group 14"><path id="Path_43" data-name="Path 43" class="cls-1" d="M186.47,7.67v34H176V37a11.56,11.56,0,0,1-4.31,3.63,14.23,14.23,0,0,1-12.91-.37,11.74,11.74,0,0,1-4.64-5,17.1,17.1,0,0,1-1.65-7.74V7.66H162.9V26.13a7.45,7.45,0,0,0,1.77,5.31,7,7,0,0,0,9.58,0A7.45,7.45,0,0,0,176,26.13V7.67Z"/></g><g id="Group_15" data-name="Group 15"><path id="Path_44" data-name="Path 44" class="cls-1" d="M191.36,17.37a13.59,13.59,0,0,1,5-5.62,13,13,0,0,1,7-2A12.41,12.41,0,0,1,209,11.07a10.23,10.23,0,0,1,4,3.49V0h9.63V41.59h-9.63V37.1a9.67,9.67,0,0,1-3.86,3.59A12,12,0,0,1,203.38,42a12.88,12.88,0,0,1-7-2,13.75,13.75,0,0,1-5-5.68A20.66,20.66,0,0,1,191.36,17.37Zm19.7,2.86a6.77,6.77,0,0,0-9.57-.19l-.17.17a7.8,7.8,0,0,0-2,5.64,8,8,0,0,0,2,5.71,6.71,6.71,0,0,0,9.48.28h0l.26-.26a9,9,0,0,0,0-11.35Z"/></g><g id="Group_16" data-name="Group 16"><path id="Path_45" data-name="Path 45" class="cls-1" d="M227.64,16.56a14.11,14.11,0,0,1,5.15-5.81,13.51,13.51,0,0,1,7.27-2,12.41,12.41,0,0,1,6,1.39,10.26,10.26,0,0,1,4,3.66v-5H260V41.58h-9.94V37a10.7,10.7,0,0,1-4,3.66A12.48,12.48,0,0,1,240,42,13.23,13.23,0,0,1,232.79,40a14.3,14.3,0,0,1-5.15-5.86,21.36,21.36,0,0,1,0-17.57Zm20.35,3a7,7,0,0,0-9.88-.21l-.18.18a8,8,0,0,0-2.06,5.84,8.26,8.26,0,0,0,2.06,5.89,6.93,6.93,0,0,0,9.79.3h0l.27-.27a9.34,9.34,0,0,0,0-11.73Z"/></g><path id="Path_46" data-name="Path 46" class="cls-2" d="M130,7.67A18,18,0,0,0,112,25h0V33.8h9.92V25.61a8.06,8.06,0,0,1,16.11,0V42h9.92V25.61A18,18,0,0,0,130,7.67Z"/><path id="Path_48" data-name="Path 48" class="cls-2" d="M108.9,24.86v-.08h0a17.24,17.24,0,0,0-34.47,0h0v.16h0a17.24,17.24,0,0,0,34.47,0h0A.21.21,0,0,0,108.9,24.86ZM91.66,32.52a7.7,7.7,0,1,1,7.75-7.67A8,8,0,0,1,99.1,27a7.71,7.71,0,0,1-7.44,5.54Z"/><g id="Group_12" data-name="Group 12"><path id="Path_41" data-name="Path 41" class="cls-1" d="M33.41,27.31H10.2a6.91,6.91,0,0,0,2,4.76,6.13,6.13,0,0,0,4.35,1.65,5.39,5.39,0,0,0,5.33-3.23H32.82A15.1,15.1,0,0,1,24.3,40.55,17.69,17.69,0,0,1,16.92,42,17.89,17.89,0,0,1,8.17,40a14.91,14.91,0,0,1-6-6A18.41,18.41,0,0,1,0,24.86a18.62,18.62,0,0,1,2.12-9.11,14.78,14.78,0,0,1,6-6,18.18,18.18,0,0,1,8.82-2.09,17.94,17.94,0,0,1,8.64,2,14.6,14.6,0,0,1,5.9,5.81,17.59,17.59,0,0,1,2.13,8.81A24.87,24.87,0,0,1,33.41,27.31ZM23.09,21.62a5.27,5.27,0,0,0-1.79-4.19,6.67,6.67,0,0,0-4.51-1.56,6.49,6.49,0,0,0-4.34,1.5,6.65,6.65,0,0,0-2.19,4.25Z"/></g><g id="Group_13" data-name="Group 13"><path id="Path_42" data-name="Path 42" class="cls-1" d="M50.17,9A12,12,0,0,1,56,7.67a13,13,0,0,1,7,2,13.59,13.59,0,0,1,5,5.62,20.66,20.66,0,0,1,0,17,13.82,13.82,0,0,1-5,5.68,12.88,12.88,0,0,1-7,2,12.06,12.06,0,0,1-5.77-1.34,10.6,10.6,0,0,1-3.91-3.49V54.43H36.66V8.12h9.63v4.44A10.48,10.48,0,0,1,50.17,9ZM58,18.1A6.6,6.6,0,0,0,53.1,16a6.53,6.53,0,0,0-4.87,2.08,9.08,9.08,0,0,0,0,11.36,6.75,6.75,0,0,0,9.52.22h0c.09-.08.17-.17.25-.25a7.89,7.89,0,0,0,2-5.71,7.7,7.7,0,0,0-2-5.64Z"/></g><g id="Group_1" data-name="Group 1"><path id="Path_1" data-name="Path 1" class="cls-2" d="M111.16,85A36.76,36.76,0,0,1,74.41,48.32h9.84a26.91,26.91,0,0,0,53.81,0v0h9.84A36.75,36.75,0,0,1,111.16,85Z"/></g></g></g></g></svg>